# xmcd
#
# Track frame offsets: 
#        150
#        12750
#        25537
#        39694
#        53853
#        66440
#        79165
#        91423
#        101970
#        116731
#        128490
#        140568
#        153032
#        167087
#        181423
#        194077
#        204434
#        217185
#        229550
#        242457
#        254519
#        265250
#        278041
#        291002
#        304331
#        315639
#
# Disc length: 4379 seconds
#
# Revision: 0
# Processed by: cddbd v1.5.2PL0 Copyright (c) Steve Scherf et al.
# Submitted via: ExactAudioCopy v0.99pb5
#
DISCID=7911191a
DTITLE=Various Artist - Electric Blues - Teil 1 - Die Anfänge 1939 - 1954
DYEAR=2010
DGENRE=Blues
TTITLE0=Jimmy Rogers - That's All Right - 1950
TTITLE1=Tampa Red - Midnight Boogie - 1950
TTITLE2=Charles Brown - Black Night - 1951
TTITLE3=Cecil Gant - Rock Little Baby - 1951
TTITLE4=Lonnie Johnson - Why Should I Cry? - 1951
TTITLE5=Jackie Brenston - Rocket '88' - 1951
TTITLE6=Howlin' Wolf - How Many More Years? - 1951
TTITLE7=James 'Wide Mouth' Brown - Boogie Woogie Nighthawk - 1951
TTITLE8=Floyd Dixon - Baby Let's Go Down To The Woods - 1951
TTITLE9=Robert Nighthawk - Kansas City Blues - 1951
TTITLE10=Sonny Boy Williamson - Pontiac Blues - 1951
TTITLE11=Elmore James - Dust My Broom - 1951
TTITLE12=John Lee Hooker - I'm In The Mood - 1951
TTITLE13=T-Bone Walker - Cold Cold Feeling - 1952
TTITLE14=Boyd Gilmore - Ramblin' On My Mind - 1952
TTITLE15=Sunny Blair - Please Send My Bany Back - 1952
TTITLE16=Fats Domino - Trust In Me - 1952
TTITLE17=Little Walter - Juke - 1952
TTITLE18=Memphis Minnie - Me And My Chauffeur Blues - 1952
TTITLE19=Eddie Boyd - Five Long Years - 1952
TTITLE20=Eddie 'Cleanhead' Vinson - Lonesome Train - 1952
TTITLE21=Willie Mae 'Big Mama' Thornton - Hound Dog - 1952
TTITLE22=Pete 'Guitar' Lewis - Chocolate Pork Chop Man - 1952
TTITLE23=B.B. King - Woke Up This Morning - 1952
TTITLE24=Johnny Shines - Evening Sun - 1953
TTITLE25=Snooky Pryor - Cryin' Shame - 1953
EXTD=
EXTT0=
EXTT1=
EXTT2=
EXTT3=
EXTT4=
EXTT5=
EXTT6=
EXTT7=
EXTT8=
EXTT9=
EXTT10=
EXTT11=
EXTT12=
EXTT13=
EXTT14=
EXTT15=
EXTT16=
EXTT17=
EXTT18=
EXTT19=
EXTT20=
EXTT21=
EXTT22=
EXTT23=
EXTT24=
EXTT25=
PLAYORDER=
